<mxfile host="app.diagrams.net" agent="Mozilla/5.0 (Macintosh; Intel Mac OS X 10_15_7) AppleWebKit/537.36 (KHTML, like Gecko) Chrome/133.0.0.0 Safari/537.36" version="26.1.0">
  <diagram id="prtHgNgQTEPvFCAcTncT" name="Page-1">
    <mxGraphModel dx="1185" dy="641" grid="1" gridSize="10" guides="1" tooltips="1" connect="1" arrows="1" fold="1" page="1" pageScale="1" pageWidth="827" pageHeight="1169" math="0" shadow="0">
      <root>
        <mxCell id="0" />
        <mxCell id="1" parent="0" />
        <mxCell id="zof-6hFf-fucr0hb1ASE-76" value="" style="rounded=1;whiteSpace=wrap;html=1;" vertex="1" parent="1">
          <mxGeometry x="350" y="330" width="460" height="100" as="geometry" />
        </mxCell>
        <mxCell id="zof-6hFf-fucr0hb1ASE-75" value="" style="rounded=1;whiteSpace=wrap;html=1;" vertex="1" parent="1">
          <mxGeometry x="670" y="90" width="140" height="230" as="geometry" />
        </mxCell>
        <mxCell id="zof-6hFf-fucr0hb1ASE-74" value="" style="rounded=1;whiteSpace=wrap;html=1;" vertex="1" parent="1">
          <mxGeometry x="90" y="90" width="570" height="230" as="geometry" />
        </mxCell>
        <mxCell id="zof-6hFf-fucr0hb1ASE-1" value="Client" style="rounded=0;whiteSpace=wrap;html=1;fillColor=#dae8fc;strokeColor=#6c8ebf;" vertex="1" parent="1">
          <mxGeometry x="120" y="100" width="40" height="20" as="geometry" />
        </mxCell>
        <mxCell id="zof-6hFf-fucr0hb1ASE-2" value="Client" style="rounded=0;whiteSpace=wrap;html=1;fillColor=#dae8fc;strokeColor=#6c8ebf;" vertex="1" parent="1">
          <mxGeometry x="590" y="100" width="40" height="20" as="geometry" />
        </mxCell>
        <mxCell id="zof-6hFf-fucr0hb1ASE-3" value="Memory Pool" style="rounded=0;whiteSpace=wrap;html=1;fillColor=#dae8fc;strokeColor=#6c8ebf;" vertex="1" parent="1">
          <mxGeometry x="300" y="100" width="80" height="20" as="geometry" />
        </mxCell>
        <mxCell id="zof-6hFf-fucr0hb1ASE-67" style="edgeStyle=orthogonalEdgeStyle;rounded=0;orthogonalLoop=1;jettySize=auto;html=1;exitX=0.5;exitY=1;exitDx=0;exitDy=0;entryX=0.5;entryY=0;entryDx=0;entryDy=0;" edge="1" parent="1" source="zof-6hFf-fucr0hb1ASE-4" target="zof-6hFf-fucr0hb1ASE-5">
          <mxGeometry relative="1" as="geometry" />
        </mxCell>
        <mxCell id="zof-6hFf-fucr0hb1ASE-4" value="Caching Algorithms&lt;div&gt;(LRU, LFU, ...)&lt;/div&gt;" style="rounded=0;whiteSpace=wrap;html=1;" vertex="1" parent="1">
          <mxGeometry x="120" y="140" width="130" height="30" as="geometry" />
        </mxCell>
        <mxCell id="zof-6hFf-fucr0hb1ASE-68" style="rounded=0;orthogonalLoop=1;jettySize=auto;html=1;exitX=0.25;exitY=1;exitDx=0;exitDy=0;entryX=0.5;entryY=0;entryDx=0;entryDy=0;" edge="1" parent="1" source="zof-6hFf-fucr0hb1ASE-5" target="zof-6hFf-fucr0hb1ASE-6">
          <mxGeometry relative="1" as="geometry" />
        </mxCell>
        <mxCell id="zof-6hFf-fucr0hb1ASE-5" value="Client-Centric Caching&lt;div&gt;Framework&lt;/div&gt;" style="rounded=0;whiteSpace=wrap;html=1;fillColor=#ffe6cc;strokeColor=#d79b00;" vertex="1" parent="1">
          <mxGeometry x="120" y="190" width="130" height="30" as="geometry" />
        </mxCell>
        <mxCell id="zof-6hFf-fucr0hb1ASE-6" value="" style="whiteSpace=wrap;html=1;aspect=fixed;fillColor=#fff2cc;strokeColor=#d6b656;" vertex="1" parent="1">
          <mxGeometry x="120" y="240" width="20" height="20" as="geometry" />
        </mxCell>
        <mxCell id="zof-6hFf-fucr0hb1ASE-7" value="" style="whiteSpace=wrap;html=1;aspect=fixed;fillColor=#fff2cc;strokeColor=#d6b656;" vertex="1" parent="1">
          <mxGeometry x="230" y="240" width="20" height="20" as="geometry" />
        </mxCell>
        <mxCell id="zof-6hFf-fucr0hb1ASE-52" style="edgeStyle=orthogonalEdgeStyle;rounded=1;orthogonalLoop=1;jettySize=auto;html=1;exitX=1;exitY=0.5;exitDx=0;exitDy=0;entryX=0.5;entryY=1;entryDx=0;entryDy=0;curved=0;" edge="1" parent="1" source="zof-6hFf-fucr0hb1ASE-8" target="zof-6hFf-fucr0hb1ASE-45">
          <mxGeometry relative="1" as="geometry" />
        </mxCell>
        <mxCell id="zof-6hFf-fucr0hb1ASE-64" value="Victim" style="edgeLabel;html=1;align=center;verticalAlign=middle;resizable=0;points=[];fontStyle=2" vertex="1" connectable="0" parent="zof-6hFf-fucr0hb1ASE-52">
          <mxGeometry x="-0.4786" y="2" relative="1" as="geometry">
            <mxPoint x="4" y="-13" as="offset" />
          </mxGeometry>
        </mxCell>
        <mxCell id="zof-6hFf-fucr0hb1ASE-65" value="Objects" style="edgeLabel;html=1;align=center;verticalAlign=middle;resizable=0;points=[];fontStyle=0" vertex="1" connectable="0" parent="zof-6hFf-fucr0hb1ASE-52">
          <mxGeometry x="-0.4786" y="2" relative="1" as="geometry">
            <mxPoint x="99" y="-33" as="offset" />
          </mxGeometry>
        </mxCell>
        <mxCell id="zof-6hFf-fucr0hb1ASE-73" value="Top Freq Object" style="edgeLabel;html=1;align=center;verticalAlign=middle;resizable=0;points=[];fontStyle=0" vertex="1" connectable="0" parent="zof-6hFf-fucr0hb1ASE-52">
          <mxGeometry x="-0.4786" y="2" relative="1" as="geometry">
            <mxPoint x="119" y="127" as="offset" />
          </mxGeometry>
        </mxCell>
        <mxCell id="zof-6hFf-fucr0hb1ASE-8" value="Distributed Adaptive&lt;div&gt;Caching&lt;/div&gt;" style="rounded=0;whiteSpace=wrap;html=1;fillColor=#eeeeee;strokeColor=#36393d;" vertex="1" parent="1">
          <mxGeometry x="120" y="280" width="130" height="30" as="geometry" />
        </mxCell>
        <mxCell id="zof-6hFf-fucr0hb1ASE-9" value="" style="endArrow=none;html=1;rounded=0;labelPosition=center;verticalLabelPosition=middle;align=center;verticalAlign=middle;" edge="1" parent="1">
          <mxGeometry width="50" height="50" relative="1" as="geometry">
            <mxPoint x="260" y="320" as="sourcePoint" />
            <mxPoint x="260" y="90" as="targetPoint" />
          </mxGeometry>
        </mxCell>
        <mxCell id="zof-6hFf-fucr0hb1ASE-10" value="Network" style="edgeLabel;html=1;align=center;verticalAlign=middle;resizable=0;points=[];horizontal=0;labelPosition=center;verticalLabelPosition=middle;" vertex="1" connectable="0" parent="zof-6hFf-fucr0hb1ASE-9">
          <mxGeometry x="0.1112" y="-1" relative="1" as="geometry">
            <mxPoint x="-1" y="8" as="offset" />
          </mxGeometry>
        </mxCell>
        <mxCell id="zof-6hFf-fucr0hb1ASE-11" value="" style="rounded=0;whiteSpace=wrap;html=1;" vertex="1" parent="1">
          <mxGeometry x="270" y="170" width="30" height="20" as="geometry" />
        </mxCell>
        <mxCell id="zof-6hFf-fucr0hb1ASE-30" value="" style="endArrow=none;html=1;rounded=0;labelPosition=center;verticalLabelPosition=middle;align=center;verticalAlign=middle;" edge="1" parent="1">
          <mxGeometry width="50" height="50" relative="1" as="geometry">
            <mxPoint x="490" y="320" as="sourcePoint" />
            <mxPoint x="490" y="90" as="targetPoint" />
          </mxGeometry>
        </mxCell>
        <mxCell id="zof-6hFf-fucr0hb1ASE-31" value="Network" style="edgeLabel;html=1;align=center;verticalAlign=middle;resizable=0;points=[];horizontal=0;labelPosition=center;verticalLabelPosition=middle;" vertex="1" connectable="0" parent="zof-6hFf-fucr0hb1ASE-30">
          <mxGeometry x="0.1112" y="-1" relative="1" as="geometry">
            <mxPoint y="8" as="offset" />
          </mxGeometry>
        </mxCell>
        <mxCell id="zof-6hFf-fucr0hb1ASE-59" style="edgeStyle=orthogonalEdgeStyle;rounded=0;orthogonalLoop=1;jettySize=auto;html=1;exitX=0;exitY=0.5;exitDx=0;exitDy=0;entryX=0.5;entryY=0;entryDx=0;entryDy=0;" edge="1" parent="1" source="zof-6hFf-fucr0hb1ASE-32" target="zof-6hFf-fucr0hb1ASE-44">
          <mxGeometry relative="1" as="geometry" />
        </mxCell>
        <mxCell id="zof-6hFf-fucr0hb1ASE-32" value="&lt;i&gt;hash(Object ID)&lt;/i&gt;" style="rounded=0;whiteSpace=wrap;html=1;" vertex="1" parent="1">
          <mxGeometry x="500" y="140" width="130" height="20" as="geometry" />
        </mxCell>
        <mxCell id="zof-6hFf-fucr0hb1ASE-33" value="" style="rounded=0;whiteSpace=wrap;html=1;" vertex="1" parent="1">
          <mxGeometry x="300" y="170" width="30" height="20" as="geometry" />
        </mxCell>
        <mxCell id="zof-6hFf-fucr0hb1ASE-51" style="edgeStyle=orthogonalEdgeStyle;rounded=1;orthogonalLoop=1;jettySize=auto;html=1;exitX=0.5;exitY=1;exitDx=0;exitDy=0;entryX=0.5;entryY=0;entryDx=0;entryDy=0;curved=0;dashed=1;" edge="1" parent="1" source="zof-6hFf-fucr0hb1ASE-34" target="zof-6hFf-fucr0hb1ASE-45">
          <mxGeometry relative="1" as="geometry" />
        </mxCell>
        <mxCell id="zof-6hFf-fucr0hb1ASE-34" value="" style="rounded=0;whiteSpace=wrap;html=1;" vertex="1" parent="1">
          <mxGeometry x="330" y="170" width="30" height="20" as="geometry" />
        </mxCell>
        <mxCell id="zof-6hFf-fucr0hb1ASE-53" style="edgeStyle=orthogonalEdgeStyle;rounded=0;orthogonalLoop=1;jettySize=auto;html=1;exitX=0.5;exitY=1;exitDx=0;exitDy=0;entryX=0.5;entryY=0;entryDx=0;entryDy=0;" edge="1" parent="1" source="zof-6hFf-fucr0hb1ASE-44" target="zof-6hFf-fucr0hb1ASE-47">
          <mxGeometry relative="1" as="geometry" />
        </mxCell>
        <mxCell id="zof-6hFf-fucr0hb1ASE-35" value="" style="rounded=0;whiteSpace=wrap;html=1;" vertex="1" parent="1">
          <mxGeometry x="450" y="170" width="30" height="20" as="geometry" />
        </mxCell>
        <mxCell id="zof-6hFf-fucr0hb1ASE-36" value="Object" style="rounded=0;whiteSpace=wrap;html=1;" vertex="1" parent="1">
          <mxGeometry x="540" y="230" width="50" height="20" as="geometry" />
        </mxCell>
        <mxCell id="zof-6hFf-fucr0hb1ASE-38" style="edgeStyle=orthogonalEdgeStyle;rounded=0;orthogonalLoop=1;jettySize=auto;html=1;exitX=0;exitY=0.5;exitDx=0;exitDy=0;entryX=1;entryY=0.5;entryDx=0;entryDy=0;" edge="1" parent="1" source="zof-6hFf-fucr0hb1ASE-37" target="zof-6hFf-fucr0hb1ASE-32">
          <mxGeometry relative="1" as="geometry" />
        </mxCell>
        <mxCell id="zof-6hFf-fucr0hb1ASE-39" value="Get Miss" style="edgeLabel;html=1;align=center;verticalAlign=middle;resizable=0;points=[];fontStyle=2" vertex="1" connectable="0" parent="zof-6hFf-fucr0hb1ASE-38">
          <mxGeometry x="0.1029" y="-1" relative="1" as="geometry">
            <mxPoint x="25" y="-9" as="offset" />
          </mxGeometry>
        </mxCell>
        <mxCell id="zof-6hFf-fucr0hb1ASE-40" style="edgeStyle=orthogonalEdgeStyle;rounded=0;orthogonalLoop=1;jettySize=auto;html=1;exitX=0.25;exitY=1;exitDx=0;exitDy=0;entryX=1;entryY=0.5;entryDx=0;entryDy=0;" edge="1" parent="1" source="zof-6hFf-fucr0hb1ASE-37" target="zof-6hFf-fucr0hb1ASE-36">
          <mxGeometry relative="1" as="geometry" />
        </mxCell>
        <mxCell id="zof-6hFf-fucr0hb1ASE-41" value="Hit" style="edgeLabel;html=1;align=center;verticalAlign=middle;resizable=0;points=[];fontStyle=2" vertex="1" connectable="0" parent="zof-6hFf-fucr0hb1ASE-40">
          <mxGeometry x="0.4326" relative="1" as="geometry">
            <mxPoint x="42" y="-10" as="offset" />
          </mxGeometry>
        </mxCell>
        <mxCell id="zof-6hFf-fucr0hb1ASE-37" value="Local Cache" style="rounded=0;whiteSpace=wrap;html=1;" vertex="1" parent="1">
          <mxGeometry x="730" y="140" width="80" height="20" as="geometry" />
        </mxCell>
        <mxCell id="zof-6hFf-fucr0hb1ASE-48" style="edgeStyle=orthogonalEdgeStyle;rounded=0;orthogonalLoop=1;jettySize=auto;html=1;exitX=0.5;exitY=1;exitDx=0;exitDy=0;entryX=0.5;entryY=0;entryDx=0;entryDy=0;" edge="1" parent="1" source="zof-6hFf-fucr0hb1ASE-42" target="zof-6hFf-fucr0hb1ASE-46">
          <mxGeometry relative="1" as="geometry" />
        </mxCell>
        <mxCell id="zof-6hFf-fucr0hb1ASE-42" value="" style="rounded=0;whiteSpace=wrap;html=1;" vertex="1" parent="1">
          <mxGeometry x="360" y="170" width="30" height="20" as="geometry" />
        </mxCell>
        <mxCell id="zof-6hFf-fucr0hb1ASE-55" style="edgeStyle=orthogonalEdgeStyle;rounded=0;orthogonalLoop=1;jettySize=auto;html=1;exitX=0.5;exitY=1;exitDx=0;exitDy=0;entryX=0.5;entryY=0;entryDx=0;entryDy=0;" edge="1" parent="1" source="zof-6hFf-fucr0hb1ASE-43" target="zof-6hFf-fucr0hb1ASE-54">
          <mxGeometry relative="1" as="geometry" />
        </mxCell>
        <mxCell id="zof-6hFf-fucr0hb1ASE-43" value="" style="rounded=0;whiteSpace=wrap;html=1;" vertex="1" parent="1">
          <mxGeometry x="390" y="170" width="30" height="20" as="geometry" />
        </mxCell>
        <mxCell id="zof-6hFf-fucr0hb1ASE-44" value="" style="rounded=0;whiteSpace=wrap;html=1;" vertex="1" parent="1">
          <mxGeometry x="420" y="170" width="30" height="20" as="geometry" />
        </mxCell>
        <mxCell id="zof-6hFf-fucr0hb1ASE-45" value="" style="rounded=0;whiteSpace=wrap;html=1;dashed=1;fillColor=#f8cecc;strokeColor=#b85450;" vertex="1" parent="1">
          <mxGeometry x="310" y="230" width="30" height="20" as="geometry" />
        </mxCell>
        <mxCell id="zof-6hFf-fucr0hb1ASE-46" value="" style="rounded=0;whiteSpace=wrap;html=1;" vertex="1" parent="1">
          <mxGeometry x="360" y="230" width="30" height="20" as="geometry" />
        </mxCell>
        <mxCell id="zof-6hFf-fucr0hb1ASE-50" style="edgeStyle=orthogonalEdgeStyle;rounded=0;orthogonalLoop=1;jettySize=auto;html=1;exitX=1;exitY=0.5;exitDx=0;exitDy=0;entryX=0;entryY=0.5;entryDx=0;entryDy=0;" edge="1" parent="1" source="zof-6hFf-fucr0hb1ASE-47" target="zof-6hFf-fucr0hb1ASE-36">
          <mxGeometry relative="1" as="geometry" />
        </mxCell>
        <mxCell id="zof-6hFf-fucr0hb1ASE-47" value="" style="rounded=0;whiteSpace=wrap;html=1;" vertex="1" parent="1">
          <mxGeometry x="420" y="230" width="30" height="20" as="geometry" />
        </mxCell>
        <mxCell id="zof-6hFf-fucr0hb1ASE-58" style="edgeStyle=orthogonalEdgeStyle;rounded=0;orthogonalLoop=1;jettySize=auto;html=1;exitX=1;exitY=0.5;exitDx=0;exitDy=0;entryX=0.75;entryY=1;entryDx=0;entryDy=0;" edge="1" parent="1" source="zof-6hFf-fucr0hb1ASE-54" target="zof-6hFf-fucr0hb1ASE-37">
          <mxGeometry relative="1" as="geometry" />
        </mxCell>
        <mxCell id="zof-6hFf-fucr0hb1ASE-78" value="Set" style="edgeLabel;html=1;align=center;verticalAlign=middle;resizable=0;points=[];fontStyle=2" vertex="1" connectable="0" parent="zof-6hFf-fucr0hb1ASE-58">
          <mxGeometry x="-0.4638" y="-1" relative="1" as="geometry">
            <mxPoint x="2" y="-11" as="offset" />
          </mxGeometry>
        </mxCell>
        <mxCell id="zof-6hFf-fucr0hb1ASE-54" value="" style="rounded=0;whiteSpace=wrap;html=1;" vertex="1" parent="1">
          <mxGeometry x="390" y="390" width="30" height="20" as="geometry" />
        </mxCell>
        <mxCell id="zof-6hFf-fucr0hb1ASE-57" style="edgeStyle=orthogonalEdgeStyle;rounded=0;orthogonalLoop=1;jettySize=auto;html=1;exitX=0;exitY=0.5;exitDx=0;exitDy=0;entryX=0.5;entryY=0;entryDx=0;entryDy=0;" edge="1" parent="1" source="zof-6hFf-fucr0hb1ASE-56" target="zof-6hFf-fucr0hb1ASE-54">
          <mxGeometry relative="1" as="geometry">
            <mxPoint x="460" y="280" as="targetPoint" />
          </mxGeometry>
        </mxCell>
        <mxCell id="zof-6hFf-fucr0hb1ASE-77" value="Get" style="edgeLabel;html=1;align=center;verticalAlign=middle;resizable=0;points=[];fontStyle=2" vertex="1" connectable="0" parent="zof-6hFf-fucr0hb1ASE-57">
          <mxGeometry x="-0.1649" relative="1" as="geometry">
            <mxPoint x="10" y="10" as="offset" />
          </mxGeometry>
        </mxCell>
        <mxCell id="zof-6hFf-fucr0hb1ASE-56" value="Timer" style="rounded=0;whiteSpace=wrap;html=1;" vertex="1" parent="1">
          <mxGeometry x="545" y="340" width="40" height="20" as="geometry" />
        </mxCell>
        <mxCell id="zof-6hFf-fucr0hb1ASE-61" value="Evict" style="rounded=0;whiteSpace=wrap;html=1;fontStyle=3;fontColor=default;labelBorderColor=none;labelBackgroundColor=none;fillColor=default;strokeColor=none;" vertex="1" parent="1">
          <mxGeometry x="180" y="100" width="40" height="20" as="geometry" />
        </mxCell>
        <mxCell id="zof-6hFf-fucr0hb1ASE-62" value="Get/Set" style="rounded=0;whiteSpace=wrap;html=1;fontStyle=3;fontColor=default;labelBorderColor=none;labelBackgroundColor=none;fillColor=default;strokeColor=none;" vertex="1" parent="1">
          <mxGeometry x="500" y="100" width="55" height="20" as="geometry" />
        </mxCell>
        <mxCell id="zof-6hFf-fucr0hb1ASE-63" value="Evict" style="rounded=0;whiteSpace=wrap;html=1;fontStyle=2;fontColor=default;labelBorderColor=none;labelBackgroundColor=none;fillColor=default;strokeColor=none;" vertex="1" parent="1">
          <mxGeometry x="265" y="230" width="40" height="20" as="geometry" />
        </mxCell>
        <mxCell id="zof-6hFf-fucr0hb1ASE-69" style="rounded=0;orthogonalLoop=1;jettySize=auto;html=1;exitX=0.75;exitY=1;exitDx=0;exitDy=0;entryX=0.5;entryY=0;entryDx=0;entryDy=0;" edge="1" parent="1" source="zof-6hFf-fucr0hb1ASE-5" target="zof-6hFf-fucr0hb1ASE-7">
          <mxGeometry relative="1" as="geometry">
            <mxPoint x="163" y="230" as="sourcePoint" />
            <mxPoint x="140" y="250" as="targetPoint" />
          </mxGeometry>
        </mxCell>
        <mxCell id="zof-6hFf-fucr0hb1ASE-70" style="rounded=0;orthogonalLoop=1;jettySize=auto;html=1;exitX=0.5;exitY=1;exitDx=0;exitDy=0;entryX=0.25;entryY=0;entryDx=0;entryDy=0;" edge="1" parent="1" source="zof-6hFf-fucr0hb1ASE-6" target="zof-6hFf-fucr0hb1ASE-8">
          <mxGeometry relative="1" as="geometry">
            <mxPoint x="163" y="230" as="sourcePoint" />
            <mxPoint x="140" y="250" as="targetPoint" />
          </mxGeometry>
        </mxCell>
        <mxCell id="zof-6hFf-fucr0hb1ASE-71" style="rounded=0;orthogonalLoop=1;jettySize=auto;html=1;exitX=0.5;exitY=1;exitDx=0;exitDy=0;entryX=0.75;entryY=0;entryDx=0;entryDy=0;" edge="1" parent="1" source="zof-6hFf-fucr0hb1ASE-7" target="zof-6hFf-fucr0hb1ASE-8">
          <mxGeometry relative="1" as="geometry">
            <mxPoint x="228" y="230" as="sourcePoint" />
            <mxPoint x="250" y="250" as="targetPoint" />
          </mxGeometry>
        </mxCell>
        <mxCell id="zof-6hFf-fucr0hb1ASE-72" value="Candidates" style="rounded=0;whiteSpace=wrap;html=1;fontStyle=2;fontColor=default;labelBorderColor=none;labelBackgroundColor=none;fillColor=default;strokeColor=none;" vertex="1" parent="1">
          <mxGeometry x="165" y="240" width="40" height="20" as="geometry" />
        </mxCell>
      </root>
    </mxGraphModel>
  </diagram>
</mxfile>
